<svg width="39" height="38" viewBox="0 0 39 38" fill="none" xmlns="http://www.w3.org/2000/svg">
<path d="M13.1667 6.33334H10C9.16016 6.33334 8.3547 6.66697 7.76084 7.26083C7.16697 7.8547 6.83334 8.66015 6.83334 9.5V31.6667C6.83334 32.5065 7.16697 33.312 7.76084 33.9058C8.3547 34.4997 9.16016 34.8333 10 34.8333H29C29.8399 34.8333 30.6453 34.4997 31.2392 33.9058C31.833 33.312 32.1667 32.5065 32.1667 31.6667V28.5M25.8333 6.33334H29C29.8399 6.33334 30.6453 6.66697 31.2392 7.26083C31.833 7.8547 32.1667 8.66015 32.1667 9.5V15.8333L25.8333 6.33334Z" stroke="#146356" stroke-width="2" stroke-linecap="round" stroke-linejoin="round"/>
<path d="M24.25 3.16667H14.75C13.8756 3.16667 13.1667 3.87555 13.1667 4.75001V7.91667C13.1667 8.79112 13.8756 9.5 14.75 9.5H24.25C25.1245 9.5 25.8334 8.79112 25.8334 7.91667V4.75001C25.8334 3.87555 25.1245 3.16667 24.25 3.16667Z" stroke="#146356" stroke-width="2" stroke-linecap="round" stroke-linejoin="round"/>
<path d="M33.75 22.1667H17.9167" stroke="#146356" stroke-width="2" stroke-linecap="round" stroke-linejoin="round"/>
<path d="M24.25 15.8333L17.9167 22.1667L24.25 28.5" stroke="#146356" stroke-width="2" stroke-linecap="round" stroke-linejoin="round"/>
</svg>
